<?xml version="1.0" standalone="no"?>
<!DOCTYPE svg PUBLIC "-//W3C//DTD SVG 20010904//EN"
 "http://www.w3.org/TR/2001/REC-SVG-20010904/DTD/svg10.dtd">
<svg version="1.0" xmlns="http://www.w3.org/2000/svg"
 width="1080.000000pt" height="1080.000000pt" viewBox="0 0 1080.000000 1080.000000"
 preserveAspectRatio="xMidYMid meet">

<g transform="translate(0.000000,1080.000000) scale(0.100000,-0.100000)"
fill="#000000" stroke="none">
<path d="M5160 9403 c-403 -31 -859 -161 -1229 -350 -339 -174 -591 -361 -861
-640 -539 -556 -854 -1244 -925 -2023 -25 -278 -14 -530 35 -820 64 -373 216
-787 412 -1120 539 -912 1498 -1519 2543 -1609 317 -28 657 -7 975 60 774 162
1484 627 1961 1283 238 328 394 659 522 1106 25 86 75 345 86 450 31 271 22
670 -20 920 -101 588 -360 1148 -732 1582 -103 120 -244 131 -347 28 -90 -89
-93 -214 -8 -316 122 -148 294 -420 384 -609 167 -351 252 -681 274 -1062 39
-687 -169 -1365 -589 -1918 -85 -112 -350 -383 -456 -467 -365 -287 -852 -499
-1315 -573 -348 -55 -742 -40 -1092 44 -778 185 -1468 713 -1856 1421 -132
242 -251 607 -297 910 -22 143 -31 521 -16 687 39 445 197 895 447 1279 214
328 544 651 870 850 351 215 718 346 1149 411 178 26 549 23 744 -5 429 -64
812 -211 1190 -456 l95 -61 81 0 c72 0 86 3 123 28 89 58 127 180 87 279 -23
59 -45 80 -160 157 -447 299 -966 481 -1515 531 -106 9 -453 11 -560 3z"/>
<path d="M5280 7924 c-73 -9 -228 -37 -299 -55 -77 -20 -112 -37 -51 -25 247
48 572 44 805 -10 325 -75 615 -231 869 -467 291 -270 474 -604 563 -1023 24
-116 27 -150 27 -334 1 -173 -3 -224 -22 -325 -12 -66 -25 -129 -28 -140 -5
-15 -3 -17 5 -9 17 15 47 132 70 269 42 248 37 494 -15 724 -161 717 -714
1246 -1439 1376 -86 16 -408 28 -485 19z"/>
<path d="M5305 6402 c-114 -56 -175 -145 -183 -267 -11 -174 119 -323 289
-333 136 -8 247 56 306 176 36 75 39 191 6 264 -53 115 -149 179 -278 185 -73
4 -86 1 -140 -25z"/>
<path d="M452 1923 l3 -438 67 0 67 0 3 317 c2 175 6 318 9 318 3 0 62 -90
130 -200 l124 -199 40 -1 40 0 124 200 c68 110 127 200 133 200 5 0 8 -10 7
-22 -1 -13 -1 -157 -1 -320 l2 -298 70 0 70 0 0 440 0 441 -86 -3 -86 -3 -105
-170 c-57 -93 -117 -191 -131 -217 -15 -27 -31 -48 -37 -48 -5 0 -68 99 -140
220 l-130 219 -88 1 -87 0 2 -437z"/>
<path d="M10345 2317 c-3 -6 -4 -197 -3 -422 l3 -410 28 -3 27 -3 0 425 0 426
-25 0 c-14 0 -28 -6 -30 -13z"/>
<path d="M6520 1899 l0 -420 28 3 27 3 3 418 2 417 -30 0 -30 0 0 -421z"/>
<path d="M8904 2245 c-25 -42 -44 -78 -41 -82 16 -15 57 14 102 74 28 36 52
70 53 74 2 5 -12 9 -31 9 -33 0 -39 -5 -83 -75z"/>
<path d="M8042 2288 c-27 -27 -10 -78 27 -78 33 0 51 17 51 47 0 35 -53 56
-78 31z"/>
<path d="M5057 2273 c-4 -3 -7 -42 -7 -85 l0 -78 -55 0 -55 0 0 -60 0 -60 54
0 54 0 4 -197 c3 -222 8 -239 75 -290 32 -24 47 -28 117 -31 93 -4 140 9 133
36 -3 9 -8 33 -11 54 l-7 36 -57 -5 c-48 -4 -61 -2 -84 17 l-28 21 0 179 0
179 88 3 87 3 3 43 c5 64 -7 72 -99 72 l-79 0 0 85 0 85 -63 0 c-35 0 -67 -3
-70 -7z"/>
<path d="M1737 2110 c-56 -14 -122 -56 -162 -103 -105 -122 -100 -328 9 -441
56 -57 109 -84 191 -95 115 -17 211 9 284 75 56 50 87 106 100 179 37 211 -96
381 -306 391 -43 2 -95 -1 -116 -6z m205 -147 c100 -67 117 -217 35 -309 -41
-48 -82 -67 -142 -67 -215 0 -276 303 -80 395 56 26 131 19 187 -19z"/>
<path d="M2578 2108 c-20 -5 -54 -25 -76 -44 -22 -19 -43 -34 -45 -34 -3 0 -7
17 -9 38 l-3 37 -62 3 -63 3 0 -316 0 -316 68 3 67 3 2 180 c2 99 5 194 8 212
17 102 165 157 238 89 39 -36 47 -85 47 -294 l0 -193 68 3 67 3 5 210 c6 231
8 241 75 281 38 23 114 23 149 1 57 -38 61 -53 64 -284 l3 -214 65 3 66 3 -2
230 c-1 228 -1 229 -28 284 -20 41 -39 63 -73 84 -95 58 -234 43 -309 -34
l-39 -40 -44 45 c-63 62 -141 80 -239 54z"/>
<path d="M3700 2111 c-146 -32 -241 -158 -241 -319 0 -141 63 -243 182 -297
54 -24 76 -28 155 -28 84 -1 98 2 156 31 35 17 75 43 88 57 l24 26 -39 39 -40
39 -44 -29 c-76 -52 -149 -62 -223 -33 -69 26 -118 82 -118 133 0 20 5 20 245
20 l245 0 0 59 c0 121 -66 233 -165 281 -49 24 -165 35 -225 21z m170 -126
c35 -18 80 -81 80 -112 l0 -23 -175 0 c-195 0 -195 0 -154 67 36 57 84 83 157
83 37 0 75 -6 92 -15z"/>
<path d="M4514 2110 c-35 -8 -95 -42 -114 -65 -20 -24 -29 -18 -32 23 l-3 37
-62 3 -63 3 0 -316 0 -316 66 3 67 3 2 191 c2 158 5 197 20 227 42 89 150 120
237 69 51 -30 58 -62 61 -284 l2 -203 68 -3 67 -3 0 220 c0 198 -2 226 -21
275 -42 114 -161 168 -295 136z"/>
<path d="M5703 2110 c-164 -35 -275 -205 -244 -374 22 -117 82 -194 189 -244
81 -37 204 -36 289 3 142 63 215 214 178 369 -24 107 -81 178 -178 225 -52 25
-166 36 -234 21z m155 -126 c54 -22 99 -71 118 -126 57 -172 -119 -331 -277
-252 -25 13 -89 78 -89 92 -1 4 -5 27 -10 52 -19 97 28 192 115 231 49 23 94
24 143 3z"/>
<path d="M7015 2071 c-46 -12 -87 -36 -120 -71 l-30 -32 -5 49 c-5 43 -7 48
-30 48 l-25 0 -3 -293 -2 -293 27 3 28 3 5 200 c5 213 10 234 62 282 79 74
224 69 282 -10 19 -26 21 -46 26 -250 l5 -222 28 -3 29 -3 -4 228 c-3 222 -4
229 -28 271 -14 26 -42 54 -65 68 -44 26 -131 38 -180 25z"/>
<path d="M8410 2071 c-49 -10 -72 -25 -109 -66 -26 -29 -31 -44 -31 -84 0 -95
59 -140 232 -176 105 -22 142 -48 146 -102 4 -55 -10 -78 -59 -104 -79 -40
-220 -20 -273 40 -23 25 -39 27 -56 6 -11 -13 -9 -20 14 -44 50 -53 108 -73
206 -74 73 0 96 4 136 24 64 32 94 77 94 141 0 94 -44 132 -195 168 -126 30
-122 29 -155 57 -23 19 -30 33 -30 62 0 53 23 78 85 97 67 19 143 7 200 -32
42 -28 48 -29 65 -9 42 51 -155 121 -270 96z"/>
<path d="M9855 2071 c-128 -34 -204 -131 -213 -272 -8 -143 47 -253 155 -305
80 -40 185 -40 265 -1 64 31 103 69 94 92 -11 30 -36 29 -69 -3 -133 -129
-353 -51 -383 137 l-7 41 248 0 248 0 -6 65 c-10 102 -62 181 -148 226 -43 22
-138 32 -184 20z m166 -74 c50 -27 96 -92 106 -150 l6 -37 -212 0 c-171 0
-213 3 -217 14 -7 18 20 81 53 124 54 71 178 94 264 49z"/>
<path d="M7390 2060 c0 -5 23 -62 51 -127 27 -65 63 -149 79 -188 114 -276
106 -260 140 -260 31 0 33 3 71 95 22 52 55 131 74 175 90 213 125 298 125
306 0 5 -12 9 -26 9 -29 0 -38 -17 -147 -285 -36 -88 -72 -176 -80 -195 l-16
-35 -24 55 c-13 30 -59 141 -102 245 -43 105 -83 196 -88 203 -11 14 -57 16
-57 2z"/>
<path d="M8050 1774 l0 -295 28 3 27 3 2 279 c1 153 -1 285 -4 292 -3 8 -16
14 -29 14 l-24 0 0 -296z"/>
<path d="M8865 2058 c-3 -7 -4 -139 -3 -293 l3 -280 28 -3 27 -3 -2 293 -3
293 -23 3 c-12 2 -24 -3 -27 -10z"/>
<path d="M9040 2059 c0 -11 35 -98 152 -374 95 -225 84 -207 119 -203 29 3 34
9 64 83 85 209 146 356 174 418 17 38 28 73 25 78 -3 5 -15 9 -28 9 -17 0 -27
-10 -39 -37 -22 -52 -85 -204 -142 -346 -26 -65 -52 -116 -57 -115 -5 2 -55
114 -111 248 -96 230 -104 245 -130 248 -16 2 -27 -2 -27 -9z"/>
</g>
</svg>
