<?xml version="1.0" standalone="no"?>
<!DOCTYPE svg PUBLIC "-//W3C//DTD SVG 20010904//EN"
 "http://www.w3.org/TR/2001/REC-SVG-20010904/DTD/svg10.dtd">
<svg version="1.0" xmlns="http://www.w3.org/2000/svg"
 width="941.000000pt" height="1672.000000pt" viewBox="0 0 941.000000 1672.000000"
 preserveAspectRatio="xMidYMid meet">

<g transform="translate(0.000000,1672.000000) scale(0.100000,-0.100000)"
fill="#000000" stroke="none">
<path d="M0 8360 l0 -8360 4705 0 4705 0 0 4089 c0 3886 -1 4090 -17 4095 -10
3 -40 8 -68 12 -104 13 -458 74 -463 79 -9 9 23 6 105 -10 88 -17 404 -65 428
-65 13 0 15 138 15 1286 l0 1287 -57 -6 c-130 -14 -278 -18 -264 -8 12 8 13
14 3 36 -18 40 -15 45 26 45 46 0 59 -8 63 -40 4 -28 8 -28 152 -15 l77 8 0
568 c0 535 -1 567 -17 563 -25 -5 -243 -59 -338 -83 -44 -11 -92 -22 -106 -25
-22 -5 -27 -12 -33 -52 -10 -76 -7 -314 4 -314 15 0 12 -30 -4 -36 -8 -3 -13
-11 -10 -18 3 -7 -12 -19 -35 -29 -34 -15 -64 -57 -40 -57 17 0 9 -29 -13 -46
-14 -10 -17 -14 -6 -11 9 3 18 1 20 -5 3 -7 40 -6 123 3 l119 14 8 44 c4 24
19 60 32 80 30 44 46 84 46 117 0 20 5 24 28 24 19 0 23 -3 13 -9 -9 -6 -10
-11 -2 -15 8 -5 8 -13 1 -26 -5 -10 -7 -25 -5 -33 3 -7 -1 -20 -10 -27 -22
-18 -19 -50 5 -50 24 0 50 -37 47 -68 -2 -34 -27 -27 -27 8 0 27 -2 29 -23 19
-13 -6 -28 -19 -35 -30 -11 -17 -9 -19 20 -19 24 0 29 -3 19 -9 -8 -5 -16 -17
-17 -26 -2 -14 8 -16 82 -13 46 2 84 0 84 -4 0 -5 -6 -8 -13 -8 -8 0 -14 -7
-15 -15 -1 -8 -3 -22 -4 -30 -1 -8 -6 -15 -11 -15 -5 0 -7 11 -5 25 5 22 2 25
-21 25 -21 0 -29 -8 -43 -40 -9 -22 -13 -39 -10 -38 4 1 15 -2 25 -7 12 -5 14
-11 8 -19 -6 -7 -8 -27 -6 -46 3 -21 -2 -44 -11 -58 -13 -20 -14 -26 -3 -32
10 -7 10 -12 1 -23 -10 -11 -9 -17 3 -27 22 -18 18 -32 -7 -30 -13 1 -25 1
-28 0 -3 -1 -12 -3 -20 -5 -8 -2 -34 -8 -58 -13 -25 -6 -44 -6 -48 -1 -3 5
-16 6 -30 3 -15 -4 -24 -2 -24 6 0 6 8 14 19 17 16 4 19 18 24 100 3 53 10
100 16 106 6 6 3 16 -10 30 -10 11 -19 27 -19 35 0 12 -13 14 -69 10 -37 -3
-73 -8 -79 -12 -14 -9 6 -56 24 -56 7 0 10 -8 8 -17 -3 -10 2 -27 11 -38 l16
-20 -3 20 c-3 19 2 25 21 25 21 0 33 -218 13 -243 -5 -7 -12 -24 -14 -40 -4
-23 -1 -28 19 -33 44 -11 9 -25 -88 -34 -229 -23 -296 -30 -321 -34 -26 -5
-28 -3 -28 30 l0 35 -22 -20 c-23 -22 -32 -26 -90 -36 -21 -3 -38 -10 -38 -16
0 -20 95 -51 170 -56 81 -5 110 -23 110 -67 0 -11 5 -28 11 -36 11 -15 9 18
-7 102 l-6 36 78 6 c44 4 94 9 112 12 l32 5 2 -228 c1 -125 2 -273 2 -329 l1
-101 -31 76 c-17 42 -40 94 -51 116 -40 76 -174 199 -273 250 -36 18 -99 58
-140 89 -41 31 -85 56 -97 56 -12 0 -43 16 -69 36 -32 25 -54 34 -70 31 -23
-4 -50 10 -179 96 -141 94 -241 237 -165 237 20 0 72 68 86 112 3 10 14 18 25
18 10 0 19 5 19 11 0 8 6 7 17 -2 13 -11 12 -6 -5 22 -20 33 -21 86 -1 73 15
-9 10 8 -7 27 -20 23 -9 46 14 27 14 -12 14 -10 2 12 -9 17 -10 25 -1 28 6 2
9 8 6 13 -3 4 18 34 47 64 29 31 57 63 62 73 5 9 -14 -7 -41 -36 l-50 -53 2
38 c3 47 12 84 35 149 11 29 20 78 20 110 2 73 8 94 25 94 7 0 15 10 19 23 5
18 8 20 16 7 23 -35 -1 -189 -37 -239 -11 -14 -26 -37 -33 -51 l-13 -25 27 24
c26 25 66 115 66 151 0 31 20 23 21 -7 1 -22 2 -24 7 -8 8 33 41 -82 42 -150
1 -41 4 -54 9 -40 9 23 5 86 -10 162 -6 29 -12 80 -14 115 -4 53 -1 66 16 84
22 24 17 53 -5 35 -9 -8 -11 -2 -8 25 2 19 8 37 13 40 5 3 9 25 9 49 0 34 4
45 19 50 11 3 22 14 24 23 4 16 5 16 6 0 1 -20 4 -20 106 -18 65 1 97 11 83
25 -3 4 -32 8 -64 11 -118 10 -118 11 -79 88 31 61 31 68 3 82 -18 8 -30 7
-51 -5 -23 -13 -29 -14 -36 -2 -5 7 -13 11 -19 7 -19 -12 -35 25 -42 101 -4
42 -4 88 0 103 4 15 3 35 -2 44 -7 12 -7 21 1 29 17 17 59 -8 83 -48 22 -38
38 -42 18 -5 -11 21 -10 22 14 16 24 -6 26 -4 26 23 0 21 -8 35 -26 48 -34 23
-84 75 -84 86 0 5 -8 21 -18 35 -10 15 -17 33 -16 40 1 6 2 22 3 35 2 22 2 22
17 2 9 -11 25 -38 35 -60 l19 -40 0 39 c0 27 -10 54 -31 88 -35 54 -32 74 6
38 14 -13 27 -21 30 -18 3 3 -12 21 -34 40 -30 26 -43 46 -51 82 -14 62 -31
102 -64 151 -15 22 -23 41 -17 43 5 2 42 -14 83 -35 40 -21 76 -39 81 -41 4
-2 4 4 1 12 -7 18 -115 81 -157 91 -15 4 -32 15 -37 25 -5 9 -23 20 -40 23
-27 6 -29 9 -20 32 9 23 8 24 -10 13 -11 -7 -20 -16 -20 -20 0 -5 -6 -8 -13
-8 -7 0 -18 21 -24 48 -5 26 -14 56 -18 67 -8 18 -7 18 8 6 30 -24 18 0 -23
46 -66 76 -66 76 138 69 97 -3 231 -9 297 -12 78 -4 116 -3 110 4 -10 10 -296
31 -465 34 -114 2 -120 4 -120 33 0 13 -16 44 -35 70 l-36 46 98 -5 c54 -3
197 -8 318 -11 121 -3 290 -10 375 -16 85 -5 212 -13 283 -17 121 -8 128 -10
157 -37 l30 -29 0 -135 0 -136 -43 -86 c-55 -108 -72 -185 -64 -289 l5 -80
-48 -6 c-26 -3 -52 -9 -57 -13 -6 -3 -12 -30 -15 -59 -3 -29 -3 -50 0 -47 3 3
11 0 18 -6 11 -9 8 -22 -16 -69 -20 -39 -26 -61 -19 -66 6 -3 9 -15 6 -25 -3
-12 0 -19 9 -19 8 0 11 -6 7 -17 -6 -15 -7 -37 -4 -89 1 -12 8 -14 34 -10 l32
6 -30 -15 c-30 -15 -30 -15 -3 -10 32 6 46 -10 21 -24 -25 -14 -18 -14 88 9
136 28 137 29 132 50 -4 15 2 21 23 25 16 4 52 13 81 21 28 8 68 14 90 13 l38
0 -45 -19 c-52 -22 -33 -24 59 -7 76 14 101 43 30 34 l-44 -6 43 11 42 11 0
503 c0 397 -3 504 -12 504 -7 0 -35 -7 -62 -15 -57 -17 -86 -19 -86 -5 0 5 26
17 58 25 97 27 102 30 102 70 0 32 -2 35 -24 29 -40 -10 -105 13 -112 41 -4
18 -14 25 -37 27 -57 6 -37 23 68 58 92 30 105 37 105 57 0 13 -4 23 -10 23
-5 0 -53 -16 -106 -35 -53 -19 -101 -35 -107 -35 -24 0 10 19 68 38 33 11 81
28 108 37 l47 17 0 1459 0 1459 -4705 0 -4705 0 0 -8360z m6080 5350 c184 -6
427 -15 540 -21 285 -14 339 -17 383 -18 25 -1 36 -5 31 -12 -3 -6 -1 -15 7
-19 7 -5 14 -27 15 -49 2 -39 1 -41 -26 -41 -16 0 -30 -5 -32 -11 -4 -11 -447
-14 -513 -4 -38 6 -680 33 -879 37 -113 2 -150 0 -153 -9 -4 -10 26 -13 129
-13 73 0 250 -5 393 -10 712 -26 853 -32 885 -35 19 -2 46 -3 59 -4 21 -1 17
-6 -30 -40 -30 -21 -69 -61 -88 -87 -33 -47 -16 -44 23 4 10 13 24 21 31 18 8
-3 19 2 25 10 22 26 29 15 24 -38 -12 -121 -8 -114 -75 -129 -71 -16 -154 -58
-154 -78 0 -8 -6 -16 -14 -19 -9 -3 -11 0 -7 9 4 8 -12 -8 -35 -34 -23 -27
-50 -63 -59 -80 -10 -18 -19 -30 -22 -27 -6 8 -61 -59 -91 -110 -14 -25 -29
-67 -33 -95 -4 -27 -10 -60 -15 -72 -5 -13 -4 -25 2 -28 5 -4 1 -18 -10 -34
-12 -17 -29 -74 -42 -142 -11 -63 -23 -121 -27 -129 -3 -8 -5 -18 -4 -22 1 -4
-3 -20 -9 -35 -6 -15 -15 -73 -19 -128 -6 -96 -6 -103 26 -192 17 -52 38 -103
46 -116 25 -39 45 -109 69 -237 13 -69 27 -128 31 -131 5 -3 16 -44 25 -90 8
-46 25 -115 36 -152 16 -54 18 -75 10 -102 -10 -32 -8 -157 4 -205 5 -21 8
-19 14 20 5 25 11 69 15 98 4 28 10 52 13 52 3 0 31 -32 61 -71 61 -79 108
-120 160 -141 l35 -14 25 -147 26 -146 -26 -19 c-14 -10 -47 -28 -73 -40 -27
-12 -67 -36 -89 -53 -27 -22 -64 -38 -119 -50 -44 -11 -93 -26 -110 -34 -16
-9 -35 -13 -41 -9 -7 5 -8 3 -3 -6 6 -10 4 -12 -7 -7 -9 3 -37 -1 -63 -9 -40
-12 -45 -12 -36 0 11 14 96 39 133 40 10 1 18 6 18 11 0 6 -21 10 -47 11 -35
0 -54 -5 -71 -20 -16 -14 -34 -19 -62 -18 -38 3 -41 1 -46 -28 -6 -26 -18 -36
-83 -69 l-77 -38 2 33 c3 27 -4 41 -36 74 -51 53 -51 65 -2 56 107 -20 109
-20 117 5 12 40 12 43 -7 65 -18 20 -27 21 -151 19 -73 -2 -144 -3 -160 -4
-19 -1 -30 -8 -36 -23 -18 -47 -45 -60 -103 -53 -47 6 -56 11 -64 33 -6 15
-23 33 -37 41 -25 13 -30 13 -57 -8 -28 -20 -30 -21 -30 -3 0 24 -16 38 -55
48 -17 4 -38 11 -48 16 -18 9 -18 10 0 23 10 7 14 17 10 22 -11 10 -123 10
-162 -1 l-30 -9 25 -7 c20 -5 24 -12 22 -35 -5 -44 -18 -61 -67 -88 l-45 -26
0 129 0 129 33 3 c18 2 32 8 31 16 -1 6 -2 36 -2 65 -2 51 -23 99 -37 85 -4
-4 -10 -22 -14 -40 -10 -48 -22 1821 -15 2358 5 376 9 463 21 482 l14 23 272
-6 c150 -3 423 -10 607 -15z m1000 -44 c0 -3 -4 -8 -10 -11 -5 -3 -10 -1 -10
4 0 6 5 11 10 11 6 0 10 -2 10 -4z m470 -26 c-20 -13 -40 -13 -40 0 0 6 12 10
28 10 21 0 24 -2 12 -10z m-623 -272 c-3 -8 -6 -5 -6 6 -1 11 2 17 5 13 3 -3
4 -12 1 -19z m1093 -247 c31 -21 65 -84 49 -90 -6 -2 -15 2 -19 9 -4 7 -12 10
-17 7 -6 -4 -20 7 -32 24 -12 16 -26 27 -32 23 -14 -9 -39 15 -39 38 0 17 5
19 33 13 17 -4 43 -14 57 -24z m-110 9 c0 -5 -4 -10 -10 -10 -5 0 -10 5 -10
10 0 6 5 10 10 10 6 0 10 -4 10 -10z m-1250 -24 c0 -2 -7 -7 -16 -10 -8 -3
-12 -2 -9 4 6 10 25 14 25 6z m2637 -535 c0 -11 -5 -17 -9 -15 -11 7 -10 34 1
34 6 0 9 -9 8 -19z m-1007 -21 c0 -5 -4 -10 -9 -10 -6 0 -13 5 -16 10 -3 6 1
10 9 10 9 0 16 -4 16 -10z m673 -167 c-7 -2 -19 -2 -25 0 -7 3 -2 5 12 5 14 0
19 -2 13 -5z m-46 -9 c-3 -3 -12 -4 -19 -1 -8 3 -5 6 6 6 11 1 17 -2 13 -5z
m-2508 -184 c-1 -42 -5 -50 -20 -50 -23 0 -26 41 -7 82 18 37 28 25 27 -32z
m-94 -30 c3 -5 1 -10 -4 -10 -6 0 -11 5 -11 10 0 6 2 10 4 10 3 0 8 -4 11 -10z
m89 -84 c-4 -17 0 -31 14 -47 20 -21 20 -40 -2 -67 -7 -11 -13 1 -22 45 -17
78 -17 93 1 93 11 0 14 -7 9 -24z m1766 -107 c0 -71 -13 -92 -24 -39 -3 17 -9
43 -12 60 -8 38 1 61 21 54 11 -5 15 -22 15 -75z m-54 -95 c2 -16 1 -23 -2
-16 -3 6 -12 12 -20 12 -15 0 -19 21 -7 34 13 13 27 0 29 -30z m-66 -177 c0
-39 -28 -135 -52 -181 -5 -10 -10 -33 -10 -51 0 -56 -10 -61 -67 -30 -28 16
-51 32 -51 38 0 5 -9 7 -19 4 -14 -3 -18 -1 -14 9 3 8 13 14 22 14 10 0 23 12
29 26 10 20 17 24 34 19 17 -6 20 -4 16 12 -3 11 1 28 8 38 8 10 14 15 14 9 0
-5 5 -2 10 6 9 13 12 13 23 -2 11 -14 13 -7 10 45 -4 57 -3 61 11 43 15 -19
16 -18 16 18 0 22 4 35 10 31 6 -3 10 -25 10 -48z m-68 -39 c-7 -7 -12 -8 -12
-2 0 14 12 26 19 19 2 -3 -1 -11 -7 -17z m1186 0 c-3 -7 -13 -15 -24 -17 -16
-3 -17 -1 -5 13 16 19 34 21 29 4z m-1 -81 c-9 -6 -9 -10 1 -14 13 -5 7 -23
-8 -23 -12 0 -24 66 -15 81 6 8 12 4 21 -12 9 -18 9 -26 1 -32z m-207 -101 c0
-8 -4 -18 -10 -21 -5 -3 -10 3 -10 14 0 12 5 21 10 21 6 0 10 -6 10 -14z
m-1000 -78 c0 -4 -4 -10 -10 -13 -5 -3 -10 -2 -10 4 0 5 -8 12 -17 14 -10 3
-6 4 10 4 15 -1 27 -5 27 -9z m-26 -49 c22 3 25 -1 14 -19 -12 -19 -13 -19
-25 3 -14 25 -17 50 -4 29 4 -8 11 -13 15 -13z m-159 -67 c3 -7 3 -18 -1 -23
-9 -15 6 -10 24 8 16 15 17 13 25 -26 5 -25 4 -53 -2 -69 -9 -27 -9 -26 -10 9
-1 20 -8 42 -16 49 -9 8 -15 8 -15 2 0 -6 5 -12 12 -14 9 -3 9 -18 -2 -62
l-13 -57 -14 33 c-8 18 -17 63 -20 99 -5 56 -3 66 10 66 9 0 19 -7 22 -15z
m1502 2 c-3 -3 -12 -4 -19 -1 -8 3 -5 6 6 6 11 1 17 -2 13 -5z m116 -51 c-7
-2 -21 -2 -30 0 -10 3 -4 5 12 5 17 0 24 -2 18 -5z m-2830 -56 c-2 -4 -8 -29
-13 -55 l-8 -47 -1 52 c-1 60 7 92 20 72 4 -7 5 -17 2 -22z m2720 -52 c4 -8 3
-16 -1 -19 -4 -3 -9 4 -9 15 -2 23 3 25 10 4z m-1388 -34 c-8 -16 -20 -31 -27
-34 -21 -7 -15 43 7 59 27 20 37 7 20 -25z m-71 -55 c-10 -8 -21 -12 -24 -10
-5 6 21 24 34 24 6 0 1 -6 -10 -14z m-2024 -577 c0 -6 -4 -7 -10 -4 -5 3 -10
11 -10 16 0 6 5 7 10 4 6 -3 10 -11 10 -16z m45 -78 c21 -42 139 -75 183 -52
18 9 23 8 33 -11 10 -18 8 -24 -7 -35 -13 -9 -20 -10 -25 -2 -7 12 -210 16
-228 4 -13 -7 -42 5 -35 16 3 5 13 9 24 9 23 0 30 20 23 64 -7 44 10 48 32 7z
m-49 -171 c103 0 164 -4 164 -10 0 -6 -70 -10 -190 -10 -108 0 -190 4 -190 9
0 12 21 21 38 15 8 -2 88 -4 178 -4z m-499 -14 c3 -3 -13 -6 -36 -6 -23 0 -53
-7 -66 -16 -24 -16 -25 -16 -25 10 0 25 1 26 60 22 33 -2 63 -6 67 -10z m601
-76 c-16 -22 -29 -29 -50 -28 -42 3 -34 27 12 34 22 4 43 11 46 15 3 5 7 9 10
9 2 0 -5 -14 -18 -30z m-88 -14 c0 -8 -71 -12 -76 -4 -3 4 13 8 35 8 23 0 41
-2 41 -4z m-99 -385 c-9 -17 -15 -18 -41 -8 -40 15 -38 23 8 34 41 10 49 4 33
-26z m-281 -21 c0 -5 -4 -10 -9 -10 -6 0 -13 5 -16 10 -3 6 1 10 9 10 9 0 16
-4 16 -10z m30 -16 c0 -8 -4 -12 -10 -9 -5 3 -10 10 -10 16 0 5 5 9 10 9 6 0
10 -7 10 -16z m150 -58 c0 -20 -26 -27 -55 -16 -38 14 -30 30 15 30 28 0 40
-4 40 -14z m3570 -271 c0 -8 -4 -15 -10 -15 -5 0 -10 7 -10 15 0 8 5 15 10 15
6 0 10 -7 10 -15z m-150 -5 c-19 -13 -30 -13 -30 0 0 6 10 10 23 10 18 0 19
-2 7 -10z m150 -46 c0 -8 -4 -12 -10 -9 -5 3 -10 10 -10 16 0 5 5 9 10 9 6 0
10 -7 10 -16z m-179 -51 c-9 -16 -10 -16 -11 4 0 12 3 30 7 40 7 16 8 16 11
-4 2 -12 -1 -30 -7 -40z m-3443 -15 c-5 -14 -21 -16 -195 -19 -107 -2 -144 -6
-147 -16 -7 -18 -33 -16 -40 3 -17 44 -16 44 190 44 145 0 195 -3 192 -12z
m3447 -38 c3 -5 -1 -10 -10 -10 -9 0 -13 5 -10 10 3 6 8 10 10 10 2 0 7 -4 10
-10z m345 -115 c0 -2 -9 -9 -20 -15 -16 -9 -20 -8 -20 5 0 8 9 15 20 15 11 0
20 -2 20 -5z m-4078 -56 c21 -11 21 -12 -3 -25 -32 -17 -51 -17 -75 1 -16 13
-17 16 -4 25 20 13 56 13 82 -1z m158 -4 c0 -12 -13 -15 -60 -15 -93 0 -77 26
18 29 31 1 42 -3 42 -14z m3562 -20 c0 -5 -5 -11 -11 -13 -6 -2 -11 4 -11 13
0 9 5 15 11 13 6 -2 11 -8 11 -13z m49 -8 c-13 -13 -26 -3 -16 12 3 6 11 8 17
5 6 -4 6 -10 -1 -17z m179 -7 c0 -5 -2 -10 -4 -10 -3 0 -8 5 -11 10 -3 6 -1
10 4 10 6 0 11 -4 11 -10z m-3805 -50 c3 -5 -1 -10 -9 -10 -9 0 -16 5 -16 10
0 6 4 10 9 10 6 0 13 -4 16 -10z m-115 -91 c0 -35 -19 -79 -34 -79 -7 0 -19
-9 -29 -20 -40 -47 -50 -4 -16 70 28 62 48 83 66 69 7 -6 13 -24 13 -40z
m4035 21 c-3 -5 -10 -10 -16 -10 -5 0 -9 5 -9 10 0 6 7 10 16 10 8 0 12 -4 9
-10z m-5 -100 c-19 -13 -30 -13 -30 0 0 6 10 10 23 10 18 0 19 -2 7 -10z m-35
-309 c-18 -51 -37 -81 -52 -81 -17 0 -16 9 6 53 38 74 69 93 46 28z m-4095
-1062 c0 -11 -4 -17 -10 -14 -5 3 -10 15 -10 26 0 11 5 17 10 14 6 -3 10 -15
10 -26z m3740 -1419 c0 -5 -2 -10 -4 -10 -3 0 -8 5 -11 10 -3 6 -1 10 4 10 6
0 11 -4 11 -10z m40 1 c0 -5 -7 -11 -15 -15 -9 -3 -15 0 -15 9 0 8 7 15 15 15
8 0 15 -4 15 -9z m326 -129 c-9 -9 -37 8 -31 18 5 8 11 7 21 -1 8 -6 12 -14
10 -17z m-979 -3856 c-8 -19 -37 -21 -37 -3 0 7 5 18 12 25 15 15 33 -1 25
-22z m-2 -206 c0 -53 -24 -66 -50 -27 -23 36 -12 73 23 72 25 0 27 -3 27 -45z
m-110 9 c0 -22 -62 -24 -83 -3 -16 17 -16 18 0 11 10 -3 28 -2 40 3 29 11 43
7 43 -11z"/>
<path d="M5193 13033 c-9 -3 -13 -29 -13 -79 l0 -74 168 -1 c92 -1 197 -2 235
-4 37 -1 84 1 105 4 l37 7 -3 45 c-4 49 -3 49 71 73 39 13 12 24 -75 30 -103
7 -506 6 -525 -1z"/>
<path d="M5476 12831 c-38 -15 4 -23 95 -15 49 3 88 8 86 10 -8 9 -163 13
-181 5z"/>
<path d="M5398 12543 c-30 -8 -20 -22 22 -33 41 -11 84 3 77 25 -4 11 -70 16
-99 8z"/>
<path d="M5461 12481 c-14 -4 -28 -17 -32 -31 -3 -14 -18 -45 -33 -70 -14 -25
-26 -56 -26 -70 0 -23 -7 -27 -67 -43 -38 -9 -73 -17 -80 -17 -7 0 -12 34 -15
104 -3 93 -10 128 -22 115 -2 -2 -6 -67 -7 -144 l-4 -140 235 -5 c129 -3 241
-4 248 -2 20 7 13 32 -12 41 -25 10 -41 37 -27 45 11 7 11 58 1 71 -5 6 -11
27 -15 48 -7 37 -3 42 33 38 19 -3 14 10 -15 41 -23 24 -34 28 -82 27 -31 -1
-67 -4 -80 -8z m9 -137 c0 -8 -4 -12 -10 -9 -5 3 -10 10 -10 16 0 5 5 9 10 9
6 0 10 -7 10 -16z m-91 -100 c3 -16 1 -17 -13 -5 -19 16 -21 34 -3 29 6 -3 14
-13 16 -24z"/>
<path d="M5760 12245 c-7 -9 -11 -18 -8 -20 7 -8 38 5 38 15 0 17 -18 19 -30
5z"/>
<path d="M5369 12144 c-30 -6 -47 -14 -39 -17 21 -8 204 -15 608 -23 306 -6
342 -5 337 8 -9 23 -51 27 -330 33 -435 11 -520 10 -576 -1z"/>
<path d="M5214 12083 c-3 -10 -10 -26 -15 -36 -5 -10 -7 -22 -4 -27 3 -5 1
-11 -5 -15 -14 -9 -13 -102 3 -112 24 -15 47 -12 57 7 8 16 23 20 83 22 65 3
69 4 46 15 -15 6 -28 15 -30 20 -6 12 -84 53 -102 53 -8 0 -17 6 -20 14 -8 20
34 26 182 26 117 0 166 9 148 26 -13 13 -102 23 -220 23 -104 1 -118 -1 -123
-16z"/>
<path d="M5391 11876 c-9 -11 -10 -20 -1 -36 13 -24 38 -23 53 1 23 37 -25 68
-52 35z"/>
<path d="M5455 11393 c-31 -7 -36 -16 -48 -79 -10 -49 -16 -59 -33 -60 -34 -2
-74 -14 -74 -22 0 -4 15 -12 33 -17 30 -9 41 -33 12 -27 -7 1 -16 -2 -20 -8
-3 -5 -17 -10 -30 -10 -26 0 -41 -15 -25 -25 5 -3 10 -15 10 -26 0 -10 7 -19
15 -19 10 0 15 7 13 17 -2 13 6 19 29 23 18 3 41 13 52 22 13 11 21 13 23 6 3
-7 20 -17 39 -24 31 -12 32 -13 12 -19 -27 -9 -38 -37 -23 -65 6 -11 7 -19 3
-18 -20 6 -53 -24 -53 -47 0 -16 -6 -25 -15 -25 -25 0 -17 -17 15 -30 18 -7
30 -20 30 -31 0 -19 29 -42 68 -54 21 -6 23 -4 20 22 -2 15 -8 27 -15 26 -6
-1 -14 4 -17 12 -4 11 2 15 26 15 30 0 31 0 24 42 -4 23 -11 47 -17 54 -7 9
-6 15 3 21 27 16 80 95 88 128 7 32 6 35 -14 35 -45 0 -57 20 -47 74 11 60 1
93 -34 106 -15 6 -27 9 -28 9 -1 -1 -11 -3 -22 -6z"/>
<path d="M6374 11360 c-28 -47 -47 -96 -42 -111 6 -17 70 108 66 129 -2 13 -9
8 -24 -18z"/>
<path d="M5821 11211 c-12 -8 -13 -16 -3 -48 21 -72 22 -89 5 -114 -24 -35
-30 -37 -80 -28 -25 5 -49 7 -53 4 -5 -3 -11 -38 -14 -78 -3 -39 -8 -102 -10
-139 l-5 -68 198 0 199 0 7 46 c8 53 4 59 -38 59 -35 0 -35 2 -18 70 8 31 7
43 -5 56 -34 37 -3 52 53 24 45 -23 57 -39 43 -64 -8 -16 -7 -28 5 -50 8 -16
19 -32 24 -36 15 -9 31 29 31 74 0 23 5 41 10 41 17 0 11 21 -12 41 -14 11
-39 18 -61 19 -27 0 -37 4 -34 13 5 13 9 13 45 2 28 -8 29 10 2 25 -12 6 -39
14 -62 18 -38 7 -41 10 -43 42 -2 18 1 45 6 59 7 17 6 27 -3 33 -18 11 -169
10 -187 -1z m57 -225 c17 -1 32 -5 32 -9 0 -4 0 -12 0 -18 0 -7 -14 -8 -39 -4
-45 7 -61 -7 -37 -34 19 -21 20 -34 4 -62 -10 -17 -10 -23 0 -26 18 -7 14 -38
-8 -58 -16 -14 -23 -15 -34 -6 -18 15 -46 95 -46 132 0 23 5 28 28 31 19 2 27
9 28 23 1 11 2 26 3 34 1 9 7 11 19 5 9 -4 32 -8 50 -8z"/>
<path d="M5684 11136 c-4 -10 -2 -22 4 -28 8 -8 13 -7 18 6 4 10 2 22 -4 28
-8 8 -13 7 -18 -6z"/>
<path d="M5582 11098 c5 -15 48 -18 48 -3 0 6 -11 11 -26 13 -18 3 -25 0 -22
-10z"/>
<path d="M6568 11030 c-4 -25 -9 -63 -13 -85 l-6 -40 16 43 c9 24 15 62 13 85
l-3 42 -7 -45z"/>
<path d="M6441 10873 c0 -7 -10 -13 -22 -13 -16 0 -19 -4 -14 -21 4 -13 0 -27
-11 -40 -21 -23 -13 -35 14 -20 13 7 22 7 29 0 6 -6 25 -9 43 -7 30 3 32 5 36
50 4 54 -6 66 -31 38 -23 -26 -33 -25 -38 3 -2 12 -5 16 -6 10z"/>
<path d="M6561 10870 c0 -8 6 -26 15 -40 l15 -25 -7 25 c-3 14 -10 32 -15 40
-7 13 -8 13 -8 0z"/>
<path d="M5483 10815 c-8 -21 5 -34 27 -28 12 3 20 12 18 21 -4 19 -38 25 -45
7z"/>
<path d="M6120 10800 c0 -5 5 -10 10 -10 6 0 10 5 10 10 0 6 -4 10 -10 10 -5
0 -10 -4 -10 -10z"/>
<path d="M5270 10701 c0 -12 85 -24 120 -16 55 12 31 25 -45 25 -41 0 -75 -4
-75 -9z"/>
<path d="M6500 10559 c-14 -25 -11 -29 34 -39 25 -5 39 -4 46 5 11 13 50 9 60
-6 10 -14 33 8 27 25 -7 18 -47 22 -47 5 0 -6 -12 -1 -26 10 -35 28 -80 27
-94 0z"/>
<path d="M7956 11582 c-2 -4 -1 -14 5 -22 7 -12 9 -10 9 8 0 23 -5 28 -14 14z"/>
<path d="M7917 11513 c-13 -12 -7 -23 13 -23 13 0 18 5 14 15 -7 16 -17 19
-27 8z"/>
<path d="M7913 11459 c14 -8 22 -8 30 0 8 8 3 11 -18 11 -26 -1 -28 -2 -12
-11z"/>
<path d="M7834 13606 c11 -9 24 -16 30 -16 12 0 7 5 -24 19 -24 11 -24 11 -6
-3z"/>
<path d="M8682 12945 c-1 -38 3 -88 7 -110 8 -38 9 -37 9 20 0 33 -3 83 -8
110 l-7 50 -1 -70z"/>
<path d="M8281 12433 c0 -5 9 -26 19 -48 17 -35 19 -36 14 -10 -10 51 -15 65
-25 65 -5 0 -9 -3 -8 -7z"/>
<path d="M9368 12403 c10 -4 9 -8 -5 -18 -14 -11 -15 -16 -4 -28 10 -13 10
-21 -2 -44 -8 -15 -13 -42 -11 -59 4 -34 -8 -49 -41 -56 -14 -2 -21 -13 -25
-38 -4 -29 -9 -34 -27 -32 -32 5 -28 -15 7 -36 29 -18 26 -18 -168 -15 -231 3
-309 -2 -309 -23 0 -8 15 -16 34 -20 29 -6 48 -24 24 -24 -5 0 -23 -14 -40
-31 -30 -29 -39 -49 -23 -49 4 0 22 -14 41 -30 38 -34 54 -35 166 -19 65 10
78 15 85 35 8 20 38 44 56 44 3 0 4 -11 2 -25 -6 -28 2 -30 67 -16 22 5 79 14
128 21 l87 12 0 229 0 229 -27 -1 c-16 0 -22 -3 -15 -6z"/>
<path d="M9170 12390 l-25 -8 25 -1 c14 0 32 4 40 9 13 9 13 10 0 9 -8 -1 -26
-5 -40 -9z"/>
<path d="M9185 12109 c-9 -14 -2 -20 14 -10 8 6 9 11 3 15 -6 3 -14 1 -17 -5z"/>
<path d="M8499 12064 c-7 -9 -6 -15 4 -21 7 -4 16 -16 20 -25 11 -32 27 -19
27 21 0 34 -3 40 -21 38 -11 -1 -25 -7 -30 -13z"/>
<path d="M8525 11917 c-19 -15 -13 -37 11 -37 8 0 14 10 14 25 0 29 0 29 -25
12z"/>
<path d="M8583 11763 c9 -2 23 -2 30 0 6 3 -1 5 -18 5 -16 0 -22 -2 -12 -5z"/>
<path d="M8210 11439 c0 -5 5 -7 10 -4 6 3 10 8 10 11 0 2 -4 4 -10 4 -5 0
-10 -5 -10 -11z"/>
<path d="M8598 11328 c-9 -7 -18 -25 -22 -39 -4 -17 -17 -31 -36 -39 -30 -13
-31 -13 -9 -28 15 -11 37 -13 81 -9 33 3 62 8 65 10 2 3 0 31 -7 61 -10 48
-15 56 -34 56 -12 0 -29 -6 -38 -12z"/>
<path d="M8192 11305 c0 -16 2 -22 5 -12 2 9 2 23 0 30 -3 6 -5 -1 -5 -18z"/>
<path d="M8965 11240 c-22 -4 -61 -11 -87 -14 -39 -6 -48 -11 -48 -27 0 -19 5
-20 63 -13 172 18 170 17 172 42 1 19 -3 22 -29 21 -17 -1 -49 -5 -71 -9z"/>
<path d="M8165 11220 c-4 -12 -5 -24 -2 -27 3 -2 8 5 12 17 4 12 5 24 2 27 -3
2 -8 -5 -12 -17z"/>
<path d="M8560 11179 c0 -5 5 -7 10 -4 6 3 10 8 10 11 0 2 -4 4 -10 4 -5 0
-10 -5 -10 -11z"/>
<path d="M9126 11087 c-23 -17 -18 -60 8 -65 23 -5 36 14 36 51 0 30 -16 35
-44 14z"/>
<path d="M7861 10944 c0 -11 3 -14 6 -6 3 7 2 16 -1 19 -3 4 -6 -2 -5 -13z"/>
</g>
</svg>
